<?xml version="1.0" encoding="utf-8"?>
<!-- Generator: Adobe Illustrator 25.4.0, SVG Export Plug-In . SVG Version: 6.00 Build 0)  -->
<svg version="1.1" id="Das_Laboratory" xmlns="http://www.w3.org/2000/svg" xmlns:xlink="http://www.w3.org/1999/xlink" x="0px"
	 y="0px" viewBox="0 0 691.4 78.2" style="enable-background:new 0 0 691.4 78.2;" xml:space="preserve">
<g>
	<path d="M9.8,53.4c-1.3,0-4.6,0.2-6.9,3.8l-1.7-1.1c2.5-7.2,7.5-13.9,14.6-13.9c10.2,0,15.9,13.6,24.4,13.6c4.8,0,8.9-4.3,8.9-12.5
		c0-14.3-12.1-23-21.5-25.2c-0.3,0.4-0.6,1-0.6,1.6c0,4.3,9.7,6.1,9.7,12.8c0,4.7-4.8,8.5-11.6,8.5c-2.2,0-4.3-0.4-6.7-1.9l0.9-1.8
		c1.1,0.7,1.6,0.7,2.1,0.7c2.5,0,3.3-2.1,3.3-3.6c0-3-3.4-5.5-3.4-9.7c0-2.8,1.6-5.1,3.4-7.1c-0.4-0.1-0.8-0.1-1.2-0.1
		c-5.5,0-14,3.1-14,10.7c0,3.3,1.6,6.6,4.4,6.6c0.2,0,0.5,0,0.7-0.1v2c-2.1,0.7-3,0.9-4.2,0.9C3.7,37.6,0,32.3,0,25.6
		C0,15.2,8.9,3.3,23.6,3.3c15.3,0,33.2,13,33.2,32.6c0,15.5-11.4,24.6-26.1,24.6C17.6,60.7,18.3,53.4,9.8,53.4z"/>
	<path d="M66.9,44.8c0-7.5,4.8-12.5,10.5-16.4c1.6-1.1,8.5-5.2,12.3-8.9h2c4.1,3.7,7.2,6.3,12.5,8v2.2c-2,0-3.4,1.6-3.4,3.7v15.1
		c0,2.2,0.8,3.8,1.5,4.6l5-2.5l1.1,1.7L96.9,61h-2.1c-1.7-1.1-4.2-3.4-5.2-5.3c-3.9,1.6-7.6,3.4-11.4,5.3h-2
		C70.6,57.4,66.9,51.3,66.9,44.8z M89.1,33l-5.7-4.5c-3.4,3.6-4.8,8.2-4.8,13.1c0,6.7,2.6,10,5.7,12.6l4.8-2.1V33z"/>
	<path d="M117.9,59.5c4.6-7.5,9.1-11.3,15.3-11.3c2.9,0,6.1,0.8,9.1,5.2c0.4-1.7,1.1-3.9,1.1-7.6c0-5.2-1.5-6.8-3.4-6.8
		c-3.9,0-5.2,6.2-12,6.2c-5.7,0-10.1-4.4-10.1-9.4c0-2.5,1.1-4.9,3.5-7.5c3-3.2,8-6.6,11.2-10.3h2.2c0.5,1.1,1.8,1.9,3.3,1.9
		c2.1,0,4.3-1.6,4.3-5.2c0-4-2.6-5.9-5.7-5.9c-3,0-6.4,1.9-8.3,5.4l-2.1-0.9c2.5-5.5,7.7-8,12.8-8c6.6,0,13.1,4.3,13.1,11.5
		c0,6.6-5.2,12.8-12.3,12.8c-3.6,0-6.9-1.6-9.1-5.5c-0.5,1.1-1.1,4-1.1,6.6c0,4.8,2.4,7,5.7,7c5.7,0,6.1-6.2,12.2-6.2
		c4.6,0,7.5,3.4,7.5,9.6c0,5.1-2,7.5-8.9,13.2c-4.3,3.6-2.8,2.4-6.6,6.1h-2c-2.4-2.3-6.2-3.2-8.9-3.2c-3.1,0-5.9,1.2-9.1,3.9
		L117.9,59.5z"/>
	<path d="M194.5,53.4c-2.8,0-5.2,1.1-6.9,6.2l-1.9-0.5c1.1-6.1,3.7-14.6,11.6-16.3c1.1-1.6,1.6-3.5,1.6-5.5
		c0-8.9-10.2-10.3-10.2-19.5c0-9.7,11.6-14.2,20.6-14.2c7.5,0,18.4,3,18.4,12.5c0,5.4-3.6,7.9-3.6,13.9c0,4.8,2.3,7.7,4.8,8.6
		l-0.2,2c-9.1,0-15.6-5.1-15.6-12.1c0-5.3,3.7-9.3,3.7-14.5c0-5-3.4-7.9-7.4-7.9c-4.3,0-7.8,3.4-7.8,7.6c0,6.6,8.4,10.2,8.4,17.1
		c0,4.7-4.1,8.5-8,11.6c8.6,0.7,12.6,8.2,17.6,8.2c1.2,0,5.5-0.5,7.5-5.6l1.7,0.7c-1.3,6.7-4.5,15.5-13.6,15.5
		C206.6,61.2,202,53.4,194.5,53.4z"/>
	<path d="M239.2,44.8c0-7.5,4.8-12.5,10.5-16.4c1.6-1.1,8.5-5.2,12.3-8.9h2c4.1,3.7,7.2,6.3,12.5,8v2.2c-2,0-3.4,1.6-3.4,3.7v15.1
		c0,2.2,0.8,3.8,1.5,4.6l5-2.5l1.1,1.7L269.2,61h-2c-1.7-1.1-4.2-3.4-5.2-5.3c-3.9,1.6-7.6,3.4-11.4,5.3h-2
		C242.9,57.4,239.2,51.3,239.2,44.8z M261.4,33l-5.7-4.5c-3.4,3.6-4.8,8.2-4.8,13.1c0,6.7,2.6,10,5.7,12.6l4.8-2.1V33z"/>
	<path d="M289.5,54.4v-2.2c3.7-0.4,4.2-0.8,4.2-5.9V15.6c0-6-1.6-11.2-3.5-13.7l1.6-1.5c2.9,2.3,5,4.3,6.4,5.9
		c2.5-3.2,7.3-5.7,13.4-5.7c1.1,0,1.9,0,5.3,0.6v2.1c-7.8,0-11.6,3.8-11.6,10.6v10.4c4-1.3,8-2.8,12.1-4.8h2c5.7,0.8,8,5.6,8,11.8
		v8.9c0,6.2-4.6,8.9-9,12c-3.9,2.7-7.7,5.8-9.9,8.7h-2C301.7,57.9,296.7,55.6,289.5,54.4z M305.4,46.6l8.6,4.5
		c1.1-1.4,1.8-2.7,1.8-6.6V33.7c0-4.7-1.3-6.3-4.3-8.3l-6.1,2V46.6z"/>
	<path d="M337.2,55.4v-2.1c3-0.3,3.8-0.9,3.8-3.9V28.3c3.3-0.9,15.2-5.7,20.3-8.9h2.1c8.1,5,11.5,8.4,11.5,15.1v5.8
		c0,6.6-7.7,10.7-11.7,13.9c-3.5,2.8-6.2,6.2-6.6,6.6h-2C349.7,57.1,346.3,55.4,337.2,55.4z M363.1,46.7v-10c0-6.4-4.4-8.3-7.7-10.7
		l-2.7,1.2v18.6l9,5.5C362.8,50.4,363.1,49.3,363.1,46.7z"/>
	<path d="M386.5,56.1v-2c3.6-0.3,5.3-0.7,5.3-5.4V33.1c0-3.9-1.2-5.9-1.7-6.5l-5,1.8l-0.9-1.7c3.6-2.1,6.9-4.4,10.1-7.3h2
		c2.4,1.1,4.2,2.6,6,5.2l10.8-5.2h2l7.2,9.2l-9.6,5.6l-6.6-7.5l-2.6,1.1v19.8l4.8,2.5l6.7-6l1.5,1.6c-4.6,5-10.3,12.5-11.4,15.1h-2
		C397.7,56.9,393.9,56.1,386.5,56.1z"/>
	<path d="M431,44.8c0-7.5,4.8-12.5,10.5-16.4c1.6-1.1,8.5-5.2,12.3-8.9h2c4.1,3.7,7.2,6.3,12.5,8v2.2c-2,0-3.4,1.6-3.4,3.7v15.1
		c0,2.2,0.8,3.8,1.5,4.6l5-2.5l1.1,1.7L461,60.8h-2c-1.7-1.1-4.2-3.4-5.2-5.3c-3.9,1.6-7.6,3.4-11.4,5.3h-2
		C434.7,57.4,431,51.3,431,44.8z M453.2,33l-5.7-4.5c-3.4,3.6-4.8,8.2-4.8,13.1c0,6.7,2.6,10,5.7,12.6l4.8-2.1V33z"/>
	<path d="M481.4,54.5v-2.2c3.6-0.4,5-0.8,5-6V26.2h-5V24c7.5-2.9,13-7,15.3-18.2h2.5c-0.8,6.1-1,9.9-1.1,13.9h9.3v6.5h-9.3v22.1
		l4.8,2.4l5.1-5.2l1.9,1.3c-3.5,4.7-8.5,11.4-9.8,14h-2C493.3,57.5,488.5,55.7,481.4,54.5z"/>
	<path d="M520.2,55.4v-2.1c3-0.3,3.8-0.9,3.8-3.9V28.3c3.3-0.9,15.2-5.7,20.3-8.9h2.1c8.1,5,11.5,8.4,11.5,15.1v5.8
		c0,6.6-7.7,10.7-11.7,13.9c-3.5,2.8-6.2,6.2-6.6,6.6h-2C532.8,57.1,529.3,55.4,520.2,55.4z M546.1,46.7v-10c0-6.4-4.4-8.3-7.7-10.7
		l-2.7,1.2v18.6l9,5.5C545.8,50.4,546.1,49.3,546.1,46.7z"/>
	<path d="M569.6,56.1v-2c3.6-0.3,5.3-0.7,5.3-5.4V33.1c0-3.9-1.2-5.9-1.7-6.5l-5,1.8l-0.9-1.7c3.6-2.1,6.9-4.4,10.1-7.3h2
		c2.4,1.1,4.2,2.6,6,5.2l10.8-5.2h2l7.2,9.2l-9.6,5.6l-6.6-7.5l-2.6,1.1v19.8l4.8,2.5l6.7-6l1.5,1.6c-4.6,5-10.3,12.5-11.4,15.1h-2
		C580.7,56.9,577,56.1,569.6,56.1z"/>
	<path d="M636.6,76.5c3.1-4,5.5-10.6,5.5-21.6V38.4c0-9.4-1.9-11-4.8-13.1l-6.5,2.6v19.2l3.9,2.7l3.9-3.7l1.7,1.4
		c-3.3,4.1-7.1,10.7-8.4,13.4h-2c-4.8-3.4-8.9-5.2-15.9-6.4v-2.2c3.7-0.4,5.2-0.7,5.2-5.9v-17c0-4.3-5.2-5.6-5.2-10.7
		c0-4.2,3.3-7.1,6.2-9l1.7,1.2c-1,1.7-1.2,2.3-1.2,3c0,4,9.3,2.8,10,10.4c3.7-1.2,7.4-3,11.1-4.8h2c6.5,2.4,10.2,8,10.2,16.6V48
		c0,17.9-11.3,27.4-15.8,30.2L636.6,76.5z"/>
	<path d="M677.4,0c8.2,0,14,6.1,14,14.4s-5.8,14.3-14,14.3c-8.1,0-13.9-6-13.9-14.3S669.4,0,677.4,0z M677.4,27
		c7.2,0,12.1-5.2,12.1-12.6c0-7.5-4.9-12.8-12.1-12.8c-7.2,0-12.1,5.2-12.1,12.8C665.3,21.8,670.2,27,677.4,27z M679.9,14.8V15
		c0.7,0.7,1.3,1.2,4,4.4c0.7,0.9,1,1.1,2,1.1v1.3h-4.3c-2.6-3.8-3.2-4.6-4.3-6c-0.4-0.5-0.5-0.6-0.9-0.6h-1v3.3c0,1.9,0.3,2,2.5,2
		v1.3h-8v-1.3c1.7,0,2.3-0.2,2.3-2V9.7c0-1.4-0.2-1.7-2.1-1.7V6.9h7.1c3.5,0,6.8,0.8,6.8,3.9C683.9,13.5,681.8,14.4,679.9,14.8z
		 M675.3,13.9h0.8c2.9,0,4.1-0.7,4.1-3.1c0-2-1.1-2.4-3.4-2.4h-1.5L675.3,13.9L675.3,13.9z"/>
</g>
</svg>
